<svg xmlns="http://www.w3.org/2000/svg" data-name="Layer 1" viewBox="0 0 512 512"><path fill="#00acea" d="M337.15,41.93l98.7,34.68c40.33,44.8,50.55,181.8,52.79,224.54l11.24,156.94q-164.535,33.075-336.14,0s82.7-82.7,82.7-106.71c0-23.33-25.49-78.73-26.93-81.85-5.13-.53-9.61-.85-13.08-.85-15.21,0-49.67,14.44-72.9,25.03a42.976,42.976,0,0,1-43.98-5L70.37,274.02c-16-8.01-18.67-50.69-18.67-50.69l-18.05-4.81a28.977,28.977,0,0,1-21.5-29.13c.36-9.25,1.02-18.54,2.2-22.08,1.22-3.64,9.61-13.36,18.4-22.86a91.782,91.782,0,0,1,50.54-27.91l13.76-2.58s58.69-2.67,93.37-29.35"/><path fill="#fedb41" d="M284.863 183.507c-19.676-3.58-42.9 6.2-58.918 15.027a78.775 78.775 0 0 1-32.708 9.5L52.292 217.278l-17.1-4.555-3.091 11.6 18.05 4.81a6.105 6.105 0 0 0 1.938.189l141.925-9.31a90.836 90.836 0 0 0 37.718-10.963c20.231-11.153 38.337-16.027 50.981-13.731a6 6 0 1 0 2.146-11.806zM319.74 93.38s-14.19 29.03-30.4 30.95-54.71 5.63-54.71 5.63S252.87 99 258.95 99 319.74 93.38 319.74 93.38z"/><polygon fill="#00efd1" points="100.62 179.45 43.13 187.42 68.36 155.48 100.62 179.45"/></svg>